# xmcd
#
# Track frame offsets:
#	150
#	16390
#	32632
#	48870
#
# Disc length: 848 seconds
#
# Revision: 2
# Processed by: cddbd v1.5.2PL0 Copyright (c) Steve Scherf et al.
# Submitted via: audiograbber 1.83.01
#
DISCID=25034e04
DTITLE=No Angels - Reason
DYEAR=2003
DGENRE=Ballad
TTITLE0=Reason (Radio Version)
TTITLE1=Reason (Orchester Version)
TTITLE2=Reason (Karaoke Version)
TTITLE3=That's The Reason (Original Version)
EXTD=
EXTT0=
EXTT1=
EXTT2=
EXTT3=
PLAYORDER=
